<?xml version="1.0" standalone="no"?><!DOCTYPE svg PUBLIC "-//W3C//DTD SVG 1.1//EN" "http://www.w3.org/Graphics/SVG/1.1/DTD/svg11.dtd"><svg t="1614250226871" class="icon" viewBox="0 0 1024 1024" version="1.1" xmlns="http://www.w3.org/2000/svg" p-id="5368" xmlns:xlink="http://www.w3.org/1999/xlink" width="200" height="200"><defs><style type="text/css"></style></defs><path d="M823.466667 64c8.533333 0 17.066667 2.133333 25.6 4.266667 12.8 4.266667 23.466667 12.8 32 23.466666 8.533333 10.666667 10.666667 23.466667 10.666666 36.266667v763.733333c0 12.8-4.266667 25.6-10.666666 36.266667-8.533333 10.666667-17.066667 19.2-32 23.466667-8.533333 2.133333-17.066667 4.266667-25.6 4.266666-19.2 0-36.266667-6.4-49.066667-19.2L512 689.066667 251.733333 940.8c-14.933333 12.8-29.866667 19.2-49.066666 19.2-8.533333 0-17.066667-2.133333-25.6-4.266667-12.8-4.266667-23.466667-12.8-32-23.466666-8.533333-10.666667-10.666667-23.466667-10.666667-36.266667V130.133333c0-12.8 4.266667-25.6 10.666667-36.266666 8.533333-10.666667 17.066667-19.2 32-23.466667 8.533333-4.266667 17.066667-6.4 25.6-6.4h620.8z" p-id="5369" fill="#606266"></path></svg>